<svg xmlns="http://www.w3.org/2000/svg" width="512" height="512" viewBox="0 0 512 512">
  <!-- full-bleed background so the safe-zone crop never shows transparency -->
  <rect width="512" height="512" fill="#1C1A17"/>
  <!-- content kept within the ~80% maskable safe zone -->
  <g transform="translate(146 170)">
    <g>
      <rect x="0" y="0" width="220" height="43" rx="8" fill="#2E2A24"/>
      <g fill="#B8935A">
        <polygon points="10,0 38,0 22,43 -6,43"/>
        <polygon points="57,0 85,0 69,43 41,43"/>
        <polygon points="104,0 132,0 116,43 88,43"/>
        <polygon points="151,0 179,0 163,43 135,43"/>
        <polygon points="198,0 220,0 220,12 210,43 182,43"/>
      </g>
    </g>
    <rect x="0" y="49" width="220" height="123" rx="9" fill="#F5EDE0"/>
    <polygon points="88,79 147,110 88,141" fill="#C9472B"/>
  </g>
</svg>
