<svg xmlns="http://www.w3.org/2000/svg" width="512" height="512" viewBox="0 0 512 512">
  <rect width="512" height="512" rx="112" fill="#e63946"/>
  <g transform="translate(112 150)">
    <rect x="0" y="0" width="288" height="56" rx="9" fill="#ffffff" opacity="0.9"/>
    <g fill="#e63946">
      <polygon points="12,0 50,0 28,56 -10,56"/>
      <polygon points="76,0 114,0 92,56 54,56"/>
      <polygon points="140,0 178,0 156,56 118,56"/>
      <polygon points="204,0 242,0 220,56 182,56"/>
      <polygon points="268,0 288,0 288,14 280,56 246,56"/>
    </g>
    <rect x="0" y="64" width="288" height="148" rx="11" fill="#ffffff"/>
    <polygon points="116,104 188,143 116,182" fill="#e63946"/>
  </g>
</svg>
