<svg xmlns="http://www.w3.org/2000/svg" width="512" height="512" viewBox="0 0 512 512">
  <rect width="512" height="512" fill="#e63946"/>
  <g transform="translate(152 178)">
    <rect x="0" y="0" width="208" height="40" rx="7" fill="#ffffff" opacity="0.9"/>
    <g fill="#e63946">
      <polygon points="9,0 36,0 21,40 -6,40"/>
      <polygon points="55,0 82,0 67,40 40,40"/>
      <polygon points="101,0 128,0 113,40 86,40"/>
      <polygon points="147,0 174,0 159,40 132,40"/>
      <polygon points="193,0 208,0 208,10 200,40 174,40"/>
    </g>
    <rect x="0" y="46" width="208" height="110" rx="9" fill="#ffffff"/>
    <polygon points="84,75 138,103 84,131" fill="#e63946"/>
  </g>
</svg>
